{"accessors" : [{"bufferView" : 0, "byteOffset" : 0, "componentType" : 5123, "count" : 6144, "type" : "SCALAR", "max" : [5256], "min" : [0]}, {"bufferView" : 1, "byteOffset" : 0, "componentType" : 5126, "count" : 5257, "type" : "VEC3", "max" : [0.6834830045700073, 0.6650980114936829, 0.29696398973464966], "min" : [-0.7783560156822205, -0.6650980114936829, 0.0961500033736229], "name" : "POSITION"}, {"bufferView" : 1, "byteOffset" : 12, "componentType" : 5126, "count" : 5257, "type" : "VEC2", "max" : [0.9589999914169312, 0.9384559988975525], "min" : [0, 0.2968449592590332], "name" : "TEXCOORD_0"}, {"bufferView" : 1, "byteOffset" : 20, "componentType" : 5126, "count" : 5257, "type" : "VEC3", "max" : [1.0000044107437134, 1.0000041723251343, 1.0000042915344238], "min" : [-1.0000044107437134, -1.0000040531158447, -1.0000044107437134], "name" : "NORMAL"}, {"bufferView" : 0, "byteOffset" : 12288, "componentType" : 5123, "count" : 21984, "type" : "SCALAR", "max" : [19560], "min" : [0]}, {"bufferView" : 2, "byteOffset" : 0, "componentType" : 5126, "count" : 19561, "type" : "VEC3", "max" : [0.8460440039634705, 0.8458889722824097, 0.9307479858398438], "min" : [-0.7420240044593811, -0.8412010073661804, 0.12251699715852737], "name" : "POSITION"}, {"bufferView" : 2, "byteOffset" : 12, "componentType" : 5126, "count" : 19561, "type" : "VEC2", "max" : [0.9984260201454163, 0.9973090291023254], "min" : [0, 0], "name" : "TEXCOORD_0"}, {"bufferView" : 2, "byteOffset" : 20, "componentType" : 5126, "count" : 19561, "type" : "VEC3", "max" : [1.0000040531158447, 1.0000041723251343, 0.9976866245269775], "min" : [-1.0000039339065552, -1.0000039339065552, -0.9998842477798462], "name" : "NORMAL"}, {"bufferView" : 0, "byteOffset" : 56256, "componentType" : 5123, "count" : 8160, "type" : "SCALAR", "max" : [7050], "min" : [0]}, {"bufferView" : 3, "byteOffset" : 0, "componentType" : 5126, "count" : 7051, "type" : "VEC3", "max" : [0.8958340287208557, 0.8958340287208557, 0.8626199960708618], "min" : [-0.7807149887084961, -0.8958340287208557, 0.0009609999833628535], "name" : "POSITION"}, {"bufferView" : 3, "byteOffset" : 12, "componentType" : 5126, "count" : 7051, "type" : "VEC2", "max" : [0.8959980010986328, 0.9671580195426941], "min" : [0, 0], "name" : "TEXCOORD_0"}, {"bufferView" : 3, "byteOffset" : 20, "componentType" : 5126, "count" : 7051, "type" : "VEC3", "max" : [1.0000042915344238, 1.0000041723251343, 1.0000044107437134], "min" : [-1.0000044107437134, -1.0000041723251343, -1.0000044107437134], "name" : "NORMAL"}, {"bufferView" : 0, "byteOffset" : 72576, "componentType" : 5123, "count" : 720, "type" : "SCALAR", "max" : [696], "min" : [0]}, {"bufferView" : 4, "byteOffset" : 0, "componentType" : 5126, "count" : 697, "type" : "VEC3", "max" : [0.5697739720344543, 0.7557799816131592, 0.07727000117301941], "min" : [-0.7096250057220459, -0.7557799816131592, -0.5002229809761047], "name" : "POSITION"}, {"bufferView" : 4, "byteOffset" : 12, "componentType" : 5126, "count" : 697, "type" : "VEC2", "max" : [1, 0.99058997631073], "min" : [0.07956100255250931, 0], "name" : "TEXCOORD_0"}, {"bufferView" : 4, "byteOffset" : 20, "componentType" : 5126, "count" : 697, "type" : "VEC3", "max" : [0.9988769888877869, 0.9477246403694153, 0.944863498210907], "min" : [-0.9988771080970764, -0.947724461555481, -0.9428392648696899], "name" : "NORMAL"}, {"bufferView" : 0, "byteOffset" : 74016, "componentType" : 5123, "count" : 36, "type" : "SCALAR", "max" : [29], "min" : [0]}, {"bufferView" : 5, "byteOffset" : 0, "componentType" : 5126, "count" : 30, "type" : "VEC3", "max" : [1, 1, 1], "min" : [-1, -1, -1], "name" : "POSITION"}, {"bufferView" : 5, "byteOffset" : 12, "componentType" : 5126, "count" : 30, "type" : "VEC2", "max" : [0.875, 1], "min" : [0.125, 0], "name" : "TEXCOORD_0"}, {"bufferView" : 5, "byteOffset" : 20, "componentType" : 5126, "count" : 30, "type" : "VEC3", "max" : [1.0000044107437134, 1.0000044107437134, 1.0000044107437134], "min" : [-1.0000044107437134, -1.0000044107437134, -1.0000044107437134], "name" : "NORMAL"}], "asset" : {"generator" : "Aspose.3D 23.2", "version" : "2.0"}, "buffers" : [{"uri" : "data:application/octet-stream;base64,", "byteLength" : 1259520}], "bufferViews" : [{"buffer" : 0, "byteOffset" : 0, "byteLength" : 74088, "target" : 34963}, {"buffer" : 0, "byteOffset" : 74092, "byteLength" : 196608, "byteStride" : 32, "target" : 34962}, {"buffer" : 0, "byteOffset" : 270704, "byteLength" : 703488, "byteStride" : 32, "target" : 34962}, {"buffer" : 0, "byteOffset" : 974196, "byteLength" : 261120, "byteStride" : 32, "target" : 34962}, {"buffer" : 0, "byteOffset" : 1235320, "byteLength" : 23040, "byteStride" : 32, "target" : 34962}, {"buffer" : 0, "byteOffset" : 1258364, "byteLength" : 1152, "byteStride" : 32, "target" : 34962}], "materials" : [{"name" : "Material.002", "pbrMetallicRoughness" : {"baseColorFactor" : [1, 1, 1, 1], "metallicFactor" : 1, "roughnessFactor" : 1}, "emissiveFactor" : [0, 0, 0], "alphaMode" : "OPAQUE", "doubleSided" : true}, {"name" : "Material.002", "pbrMetallicRoughness" : {"baseColorFactor" : [1, 1, 1, 1], "metallicFactor" : 1, "roughnessFactor" : 1}, "emissiveFactor" : [0, 0, 0], "alphaMode" : "OPAQUE", "doubleSided" : true}, {"name" : "Material.002", "pbrMetallicRoughness" : {"baseColorFactor" : [1, 1, 1, 1], "metallicFactor" : 1, "roughnessFactor" : 1}, "emissiveFactor" : [0, 0, 0], "alphaMode" : "OPAQUE", "doubleSided" : true}, {"name" : "Material.002", "pbrMetallicRoughness" : {"baseColorFactor" : [1, 1, 1, 1], "metallicFactor" : 1, "roughnessFactor" : 1}, "emissiveFactor" : [0, 0, 0], "alphaMode" : "OPAQUE", "doubleSided" : true}, {"name" : "Material", "pbrMetallicRoughness" : {"baseColorFactor" : [0.800000011920929, 0.800000011920929, 0.800000011920929, 1], "metallicFactor" : 0, "roughnessFactor" : 0.5}, "emissiveFactor" : [0, 0, 0], "alphaMode" : "OPAQUE", "doubleSided" : true}], "meshes" : [{"primitives" : [{"attributes" : {"POSITION" : 1, "TEXCOORD_0" : 2, "NORMAL" : 3}, "indices" : 0, "material" : 0, "mode" : 4}]}, {"primitives" : [{"attributes" : {"POSITION" : 5, "TEXCOORD_0" : 6, "NORMAL" : 7}, "indices" : 4, "material" : 1, "mode" : 4}]}, {"primitives" : [{"attributes" : {"POSITION" : 9, "TEXCOORD_0" : 10, "NORMAL" : 11}, "indices" : 8, "material" : 2, "mode" : 4}]}, {"primitives" : [{"attributes" : {"POSITION" : 13, "TEXCOORD_0" : 14, "NORMAL" : 15}, "indices" : 12, "material" : 3, "mode" : 4}]}, {"primitives" : [{"attributes" : {"POSITION" : 17, "TEXCOORD_0" : 18, "NORMAL" : 19}, "indices" : 16, "material" : 4, "mode" : 4}]}], "nodes" : [{"mesh" : 0, "name" : "defaultMaterial.001"}, {"children" : [0], "matrix" : [100, 0, 0, 0, 0, -3.0294622273372633E-05, -99.99998131835444, 0, 0, 99.99998131835444, -3.0294622273372633E-05, 0, -6.103515625E-05, -6.103515625E-05, -3.0517578125E-05, 1], "name" : "Cube.002"}, {"mesh" : 1, "name" : "defaultMaterial.002"}, {"children" : [2], "matrix" : [100, 0, 0, 0, 0, -3.0294622273372633E-05, -99.99998131835444, 0, 0, 99.99998131835444, -3.0294622273372633E-05, 0, -6.103515625E-05, -6.103515625E-05, -3.0517578125E-05, 1], "name" : "Cube.003"}, {"mesh" : 2, "name" : "defaultMaterial.003"}, {"children" : [4], "matrix" : [100, 0, 0, 0, 0, -3.0294622273372633E-05, -99.99998131835444, 0, 0, 99.99998131835444, -3.0294622273372633E-05, 0, -6.103515625E-05, -6.103515625E-05, -3.0517578125E-05, 1], "name" : "Cube.004"}, {"mesh" : 3, "name" : "defaultMaterial"}, {"children" : [6], "matrix" : [100, 0, 0, 0, 0, -3.0294622273372633E-05, -99.99998131835444, 0, 0, 99.99998131835444, -3.0294622273372633E-05, 0, -6.103515625E-05, -6.103515625E-05, -3.0517578125E-05, 1], "name" : "Cylinder"}, {"children" : [1, 3, 5, 7], "matrix" : [1, 0, 0, 0, 0, -3.029462689596585E-07, 0.9999999657714298, 0, 0, -0.9999999657714298, -3.029462689596585E-07, 0, -0.0001220703125, -1.2175201845820993E-05, 0.00012656941544264555, 1], "name" : "Collada visual scene group"}, {"children" : [8], "matrix" : [0.0035051137674599886, 0, 0, 0, 0, -1.6527794680019896E-09, -0.0035051144086052097, 0, 0, 0.0035051144086052097, -1.6527794680019896E-09, 0, 2.848763942718506, 2.706024408340454, 1.4748963117599487, 1], "name" : "Sketchfab_model"}, {"matrix" : [0.0035051137674599886, 0, 0, 0, 0, 0.0035051137674599886, 0, 0, 0, 0, 0.0035051137674599886, 0, 2.848763942718506, 2.706024408340454, 1.4748963117599487, 1], "mesh" : 4, "name" : "Cube"}], "scene" : 0, "scenes" : [{"nodes" : [9, 10]}]}